<?xml version="1.0" standalone="yes"?>
<svg xmlns="http://www.w3.org/2000/svg" width="108" height="108">
<path style="fill:#ffffff; stroke:none;" d="M0 0L0 108L108 108L108 0L0 0z"/>
<path style="fill:#ff1717; stroke:none;" d="M50 8L58 8C55.0336 4.57066 52.9664 4.57066 50 8z"/>
<path style="fill:#ff4141; stroke:none;" d="M49 8L49 9L59 9L49 8z"/>
<path style="fill:#ff1717; stroke:none;" d="M49 9L47.8248 25L34.0131 43L32.0617 57L17.9383 76L17 99L27 99L27.9383 80L36 68L38 68L48.9869 83L50 99L59 99C59 84.7509 61.821 78.3936 72 68L81.0116 81L82 99L91 99L90.0617 76L75.858 57L73.6829 42L59.9383 24L59 9L49 9z"/>
<path style="fill:#ff5e5e; stroke:none;" d="M47 26L48 27L47 26z"/>
<path style="fill:#ffadad; stroke:none;" d="M46 27L47 28L46 27z"/>
<path style="fill:#ff5e5e; stroke:none;" d="M62 28L63 29L62 28z"/>
<path style="fill:#ffadad; stroke:none;" d="M63 29L64 30L63 29z"/>
<path style="fill:#ff4141; stroke:none;" d="M42 32L43 33L42 32z"/>
<path style="fill:#ffadad; stroke:none;" d="M41 33L42 34L41 33z"/>
<path style="fill:#ff5e5e; stroke:none;" d="M53 34L54 35L53 34z"/>
<path style="fill:#ffffff; stroke:none;" d="M54 34C45.5589 43.1654 37.9984 53.4273 47.2654 64.9992C48.8207 66.9414 51.2341 70.7932 54.0748 70.7932C57.0182 70.7932 59.4477 67.0185 61.061 64.9992C69.959 53.8619 62.909 42.3271 54 34z"/>
<path style="fill:#ffadad; stroke:none;" d="M55 35L56 36L55 35M68 35L69 36L68 35z"/>
<path style="fill:#ff5e5e; stroke:none;" d="M56 36L57 37L56 36z"/>
<path style="fill:#ff4141; stroke:none;" d="M37 38L38 39L37 38z"/>
<path style="fill:#ffadad; stroke:none;" d="M36 39L37 40L36 39M49 39L50 40L49 39z"/>
<path style="fill:#ff4141; stroke:none;" d="M48 40L49 41L48 40z"/>
<path style="fill:#ffadad; stroke:none;" d="M60 41L61 42L60 41z"/>
<path style="fill:#ff5e5e; stroke:none;" d="M73 41L74 42L73 41M61 42L62 43L61 42z"/>
<path style="fill:#ffadad; stroke:none;" d="M44 45L45 46L44 45z"/>
<path style="fill:#ff5e5e; stroke:none;" d="M43 46L44 47L43 46z"/>
<path style="fill:#ff4141; stroke:none;" d="M65 47L65 60L66 60L65 47z"/>
<path style="fill:#ffadad; stroke:none;" d="M64 60L65 61L64 60z"/>
<path style="fill:#ff5e5e; stroke:none;" d="M77 60L78 61L77 60M29 61L30 62L29 61M44 61L45 62L44 61z"/>
<path style="fill:#ffadad; stroke:none;" d="M78 61L79 62L78 61M28 62L29 63L28 62M45 62L46 63L45 62z"/>
<path style="fill:#ff4141; stroke:none;" d="M60 65L61 66L60 65z"/>
<path style="fill:#ffadad; stroke:none;" d="M59 66L60 67L59 66z"/>
<path style="fill:#ff4141; stroke:none;" d="M82 66L83 67L82 66M24 67L25 68L24 67z"/>
<path style="fill:#ff5e5e; stroke:none;" d="M83 67L84 68L83 67z"/>
<path style="fill:#ffadad; stroke:none;" d="M23 68L24 69L23 68M36.6667 68.3333L37.3333 68.6667L36.6667 68.3333z"/>
<path style="fill:#ff5e5e; stroke:none;" d="M50 68L51 69L50 68M71 68L72 69L71 68z"/>
<path style="fill:#ffadad; stroke:none;" d="M84 68L85 69L84 68z"/>
<path style="fill:#ff4141; stroke:none;" d="M35 69L36 70L35 69z"/>
<path style="fill:#ff5e5e; stroke:none;" d="M38 69L39 70L38 69z"/>
<path style="fill:#ff4141; stroke:none;" d="M55 71L56 72L55 71z"/>
<path style="fill:#ff5e5e; stroke:none;" d="M54 72L55 73L54 72M19 73L20 74L19 73M66 73L67 74L66 73z"/>
<path style="fill:#ff4141; stroke:none;" d="M88 73L89 74L88 73z"/>
<path style="fill:#ffadad; stroke:none;" d="M18 74L19 75L18 74M31 74L32 75L31 74M76 74L77 75L76 74M89 74L90 75L89 74z"/>
<path style="fill:#ff4141; stroke:none;" d="M30 75L31 76L30 75z"/>
<path style="fill:#ffadad; stroke:none;" d="M43 75L44 76L43 75z"/>
<path style="fill:#ff4141; stroke:none;" d="M77 75L78 76L77 75M44 76L45 77L44 76z"/>
<path style="fill:#ff5e5e; stroke:none;" d="M61 79L62 80L61 79z"/>
<path style="fill:#ff4141; stroke:none;" d="M81 80C81 90.5077 78.0005 99.99 91 100L91 99L82 99L81 80M49 82C49 92.2185 46.6542 99.9905 59 100L59 99L50 99L49 82M17 99L17 100L27 100L17 99z"/>
<path style="fill:#ffadad; stroke:none;" d="M49 99L50 100L49 99z"/>
<path style="fill:#ff5e5e; stroke:none;" d="M81 99L82 100L81 99z"/>
<path style="fill:#ff1717; stroke:none;" d="M18 100C20.9664 103.429 23.0336 103.429 26 100L18 100z"/>
<path style="fill:#ff5e5e; stroke:none;" d="M50 100L51 101L50 100z"/>
<path style="fill:#ff1717; stroke:none;" d="M51 100L53 104L58 100L51 100M82 100C84.9664 103.429 87.0336 103.429 90 100L82 100z"/>
<path style="fill:#ff4141; stroke:none;" d="M51 101L52 102L51 101z"/>
<path style="fill:#ffadad; stroke:none;" d="M57 101L58 102L57 101M56 102L57 103L56 102M88 102L89 103L88 102M20 103L21 104L20 103z"/>
<path style="fill:#ff5e5e; stroke:none;" d="M55 103L56 104L55 103z"/>
<path style="fill:#ffadad; stroke:none;" d="M87 103L88 104L87 103M21 104L22 105L21 104z"/>
<path style="fill:#ff4141; stroke:none;" d="M54 104L55 105L54 104z"/>
<path style="fill:#ff5e5e; stroke:none;" d="M86 104L87 105L86 104z"/>
</svg>
